<mxfile host="app.diagrams.net" modified="2020-08-27T06:11:10.693Z" agent="5.0 (Windows NT 10.0; Win64; x64) AppleWebKit/537.36 (KHTML, like Gecko) Chrome/71.0.3578.98 Safari/537.36" etag="Ez2Rk-N4zHB1rzoQRvsG" version="13.6.5" type="github">
  <diagram id="ACbd-t6zPhgyVPEt8qgS" name="Page-1">
    <mxGraphModel dx="1745" dy="528" grid="1" gridSize="15" guides="1" tooltips="1" connect="1" arrows="1" fold="1" page="1" pageScale="1" pageWidth="827" pageHeight="1169" math="0" shadow="0">
      <root>
        <mxCell id="0" />
        <mxCell id="1" parent="0" />
        <mxCell id="0amnVR1kdf3CnyVceFuH-26" value="" style="group" vertex="1" connectable="0" parent="1">
          <mxGeometry x="857" y="647" width="105" height="208" as="geometry" />
        </mxCell>
        <mxCell id="0amnVR1kdf3CnyVceFuH-22" value="&lt;span style=&quot;color: rgba(0 , 0 , 0 , 0) ; font-family: monospace ; font-size: 0px&quot;&gt;%3CmxGraphModel%3E%3Croot%3E%3CmxCell%20id%3D%220%22%2F%3E%3CmxCell%20id%3D%221%22%20parent%3D%220%22%2F%3E%3CmxCell%20id%3D%222%22%20value%3D%22%E8%B7%AF%E6%AE%B5%E6%8E%89%E5%A4%B4%E4%B8%AD%E5%BF%83%E7%BA%BF%22%20style%3D%22rounded%3D1%3BwhiteSpace%3Dwrap%3Bhtml%3D1%3B%22%20vertex%3D%221%22%20parent%3D%221%22%3E%3CmxGeometry%20x%3D%22540%22%20y%3D%22735%22%20width%3D%22105%22%20height%3D%2260%22%20as%3D%22geometry%22%2F%3E%3C%2FmxCell%3E%3C%2Froot%3E%3C%2FmxGraphModel%3E&lt;/span&gt;" style="rounded=1;whiteSpace=wrap;html=1;" vertex="1" parent="0amnVR1kdf3CnyVceFuH-26">
          <mxGeometry y="12.125560538116591" width="105" height="195.8744394618834" as="geometry" />
        </mxCell>
        <mxCell id="0amnVR1kdf3CnyVceFuH-25" value="路口点聚合" style="text;html=1;strokeColor=none;fillColor=none;align=center;verticalAlign=middle;rounded=0;fontColor=#FF4E3B;fontStyle=1;labelBackgroundColor=#ffffff;" vertex="1" parent="0amnVR1kdf3CnyVceFuH-26">
          <mxGeometry x="32.5" width="40" height="18.654708520179373" as="geometry" />
        </mxCell>
        <mxCell id="0amnVR1kdf3CnyVceFuH-27" value="路口要素（至少2个）" style="shape=process;whiteSpace=wrap;html=1;backgroundOutline=1;" vertex="1" parent="0amnVR1kdf3CnyVceFuH-26">
          <mxGeometry x="15" y="92.07" width="75" height="27.93" as="geometry" />
        </mxCell>
        <mxCell id="0amnVR1kdf3CnyVceFuH-28" value="车道线断点（？）" style="shape=process;whiteSpace=wrap;html=1;backgroundOutline=1;fillColor=#e51400;strokeColor=#B20000;fontColor=#ffffff;" vertex="1" parent="0amnVR1kdf3CnyVceFuH-26">
          <mxGeometry x="15" y="146.04484304932737" width="75" height="27.98206278026906" as="geometry" />
        </mxCell>
        <mxCell id="0amnVR1kdf3CnyVceFuH-5" value="" style="edgeStyle=orthogonalEdgeStyle;rounded=0;orthogonalLoop=1;jettySize=auto;html=1;" edge="1" parent="1" target="0amnVR1kdf3CnyVceFuH-4">
          <mxGeometry relative="1" as="geometry">
            <mxPoint x="160" y="570" as="sourcePoint" />
          </mxGeometry>
        </mxCell>
        <mxCell id="0amnVR1kdf3CnyVceFuH-7" value="" style="edgeStyle=orthogonalEdgeStyle;rounded=0;orthogonalLoop=1;jettySize=auto;html=1;" edge="1" parent="1" source="0amnVR1kdf3CnyVceFuH-4" target="0amnVR1kdf3CnyVceFuH-6">
          <mxGeometry relative="1" as="geometry" />
        </mxCell>
        <mxCell id="0amnVR1kdf3CnyVceFuH-4" value="主线流程" style="whiteSpace=wrap;html=1;rounded=1;" vertex="1" parent="1">
          <mxGeometry x="330" y="540" width="465" height="60" as="geometry" />
        </mxCell>
        <mxCell id="0amnVR1kdf3CnyVceFuH-6" value="" style="whiteSpace=wrap;html=1;rounded=1;" vertex="1" parent="1">
          <mxGeometry x="975" y="540" width="120" height="60" as="geometry" />
        </mxCell>
        <mxCell id="0amnVR1kdf3CnyVceFuH-17" value="" style="edgeStyle=orthogonalEdgeStyle;rounded=0;orthogonalLoop=1;jettySize=auto;html=1;" edge="1" parent="1" source="0amnVR1kdf3CnyVceFuH-9">
          <mxGeometry relative="1" as="geometry">
            <mxPoint x="225" y="765" as="targetPoint" />
          </mxGeometry>
        </mxCell>
        <mxCell id="0amnVR1kdf3CnyVceFuH-9" value="匹配差分&lt;br&gt;后语义" style="rounded=1;whiteSpace=wrap;html=1;align=left;" vertex="1" parent="1">
          <mxGeometry x="150" y="540" width="15" height="450" as="geometry" />
        </mxCell>
        <mxCell id="0amnVR1kdf3CnyVceFuH-11" value="" style="edgeStyle=orthogonalEdgeStyle;rounded=0;orthogonalLoop=1;jettySize=auto;html=1;" edge="1" parent="1" source="0amnVR1kdf3CnyVceFuH-10" target="0amnVR1kdf3CnyVceFuH-9">
          <mxGeometry relative="1" as="geometry">
            <Array as="points">
              <mxPoint x="135" y="570" />
              <mxPoint x="135" y="570" />
            </Array>
          </mxGeometry>
        </mxCell>
        <mxCell id="0amnVR1kdf3CnyVceFuH-10" value="专业采集" style="rounded=1;whiteSpace=wrap;html=1;" vertex="1" parent="1">
          <mxGeometry x="-30" y="540" width="120" height="60" as="geometry" />
        </mxCell>
        <mxCell id="0amnVR1kdf3CnyVceFuH-14" value="" style="edgeStyle=orthogonalEdgeStyle;rounded=0;orthogonalLoop=1;jettySize=auto;html=1;" edge="1" parent="1" source="0amnVR1kdf3CnyVceFuH-12" target="0amnVR1kdf3CnyVceFuH-9">
          <mxGeometry relative="1" as="geometry" />
        </mxCell>
        <mxCell id="0amnVR1kdf3CnyVceFuH-12" value="&lt;span style=&quot;font-size: 20px&quot;&gt;专业众包&lt;/span&gt;" style="rounded=1;whiteSpace=wrap;html=1;" vertex="1" parent="1">
          <mxGeometry x="-30" y="735" width="120" height="60" as="geometry" />
        </mxCell>
        <mxCell id="0amnVR1kdf3CnyVceFuH-15" value="" style="edgeStyle=orthogonalEdgeStyle;rounded=0;orthogonalLoop=1;jettySize=auto;html=1;" edge="1" parent="1" source="0amnVR1kdf3CnyVceFuH-13" target="0amnVR1kdf3CnyVceFuH-9">
          <mxGeometry relative="1" as="geometry">
            <Array as="points">
              <mxPoint x="150" y="960" />
              <mxPoint x="150" y="960" />
            </Array>
          </mxGeometry>
        </mxCell>
        <mxCell id="0amnVR1kdf3CnyVceFuH-13" value="&lt;font style=&quot;font-size: 20px&quot;&gt;普通众包&lt;/font&gt;" style="rounded=1;whiteSpace=wrap;html=1;" vertex="1" parent="1">
          <mxGeometry x="-30" y="930" width="120" height="60" as="geometry" />
        </mxCell>
        <mxCell id="0amnVR1kdf3CnyVceFuH-19" value="" style="edgeStyle=orthogonalEdgeStyle;rounded=0;orthogonalLoop=1;jettySize=auto;html=1;" edge="1" parent="1" source="0amnVR1kdf3CnyVceFuH-16" target="0amnVR1kdf3CnyVceFuH-18">
          <mxGeometry relative="1" as="geometry" />
        </mxCell>
        <mxCell id="0amnVR1kdf3CnyVceFuH-16" value="车道线分组" style="rounded=1;whiteSpace=wrap;html=1;fillColor=#a20025;strokeColor=#6F0000;fontColor=#ffffff;" vertex="1" parent="1">
          <mxGeometry x="360" y="735" width="105" height="60" as="geometry" />
        </mxCell>
        <mxCell id="0amnVR1kdf3CnyVceFuH-21" value="" style="edgeStyle=orthogonalEdgeStyle;rounded=0;orthogonalLoop=1;jettySize=auto;html=1;" edge="1" parent="1" source="0amnVR1kdf3CnyVceFuH-18" target="0amnVR1kdf3CnyVceFuH-20">
          <mxGeometry relative="1" as="geometry" />
        </mxCell>
        <mxCell id="0amnVR1kdf3CnyVceFuH-18" value="路段中心线构建" style="rounded=1;whiteSpace=wrap;html=1;" vertex="1" parent="1">
          <mxGeometry x="510" y="735" width="105" height="60" as="geometry" />
        </mxCell>
        <mxCell id="0amnVR1kdf3CnyVceFuH-23" value="" style="edgeStyle=orthogonalEdgeStyle;rounded=0;orthogonalLoop=1;jettySize=auto;html=1;" edge="1" parent="1" source="0amnVR1kdf3CnyVceFuH-20" target="0amnVR1kdf3CnyVceFuH-22">
          <mxGeometry relative="1" as="geometry">
            <Array as="points">
              <mxPoint x="840" y="765" />
              <mxPoint x="840" y="765" />
            </Array>
          </mxGeometry>
        </mxCell>
        <mxCell id="0amnVR1kdf3CnyVceFuH-20" value="路段掉头中心线" style="rounded=1;whiteSpace=wrap;html=1;" vertex="1" parent="1">
          <mxGeometry x="675" y="735" width="105" height="60" as="geometry" />
        </mxCell>
        <mxCell id="0amnVR1kdf3CnyVceFuH-24" value="&lt;font&gt;车道线属性（？）&lt;/font&gt;" style="shape=process;whiteSpace=wrap;html=1;backgroundOutline=1;fillColor=#e51400;strokeColor=#B20000;fontColor=#ffffff;" vertex="1" parent="1">
          <mxGeometry x="872" y="690" width="75" height="30" as="geometry" />
        </mxCell>
        <mxCell id="0amnVR1kdf3CnyVceFuH-31" value="" style="edgeStyle=orthogonalEdgeStyle;rounded=0;orthogonalLoop=1;jettySize=auto;html=1;fontColor=#000000;" edge="1" parent="1" source="0amnVR1kdf3CnyVceFuH-29" target="0amnVR1kdf3CnyVceFuH-30">
          <mxGeometry relative="1" as="geometry" />
        </mxCell>
        <mxCell id="0amnVR1kdf3CnyVceFuH-29" value="参考线提取" style="rounded=1;whiteSpace=wrap;html=1;labelBackgroundColor=#ffffff;fontColor=#000000;" vertex="1" parent="1">
          <mxGeometry x="510" y="903" width="105" height="60" as="geometry" />
        </mxCell>
        <mxCell id="0amnVR1kdf3CnyVceFuH-30" value="路段掉头参考线构建" style="rounded=1;whiteSpace=wrap;html=1;labelBackgroundColor=#ffffff;fontColor=#000000;" vertex="1" parent="1">
          <mxGeometry x="675" y="903" width="105" height="60" as="geometry" />
        </mxCell>
        <mxCell id="0amnVR1kdf3CnyVceFuH-33" value="" style="edgeStyle=orthogonalEdgeStyle;rounded=0;orthogonalLoop=1;jettySize=auto;html=1;fontColor=#000000;" edge="1" parent="1" source="0amnVR1kdf3CnyVceFuH-32" target="0amnVR1kdf3CnyVceFuH-29">
          <mxGeometry relative="1" as="geometry">
            <Array as="points">
              <mxPoint x="390" y="933" />
              <mxPoint x="390" y="933" />
            </Array>
          </mxGeometry>
        </mxCell>
        <mxCell id="0amnVR1kdf3CnyVceFuH-90" style="edgeStyle=orthogonalEdgeStyle;rounded=0;orthogonalLoop=1;jettySize=auto;html=1;entryX=0;entryY=0.5;entryDx=0;entryDy=0;fontColor=#000000;" edge="1" parent="1" source="0amnVR1kdf3CnyVceFuH-32" target="0amnVR1kdf3CnyVceFuH-16">
          <mxGeometry relative="1" as="geometry">
            <Array as="points">
              <mxPoint x="350" y="765" />
              <mxPoint x="350" y="765" />
            </Array>
          </mxGeometry>
        </mxCell>
        <mxCell id="0amnVR1kdf3CnyVceFuH-32" value="打标Roda标车道线提取，赋值RoadId" style="rounded=1;whiteSpace=wrap;html=1;fillColor=#ffcccc;strokeColor=#36393d;" vertex="1" parent="1">
          <mxGeometry x="225" y="720" width="60" height="225" as="geometry" />
        </mxCell>
        <mxCell id="0amnVR1kdf3CnyVceFuH-62" value="相对位置关系" style="edgeStyle=orthogonalEdgeStyle;rounded=0;orthogonalLoop=1;jettySize=auto;html=1;entryX=0;entryY=0.538;entryDx=0;entryDy=0;entryPerimeter=0;fontColor=#FF0000;" edge="1" parent="1" source="0amnVR1kdf3CnyVceFuH-34" target="0amnVR1kdf3CnyVceFuH-60">
          <mxGeometry relative="1" as="geometry" />
        </mxCell>
        <mxCell id="0amnVR1kdf3CnyVceFuH-34" value="路口点" style="rounded=1;whiteSpace=wrap;html=1;fillColor=#e51400;strokeColor=#B20000;fontColor=#ffffff;" vertex="1" parent="1">
          <mxGeometry x="1020" y="735" width="105" height="60" as="geometry" />
        </mxCell>
        <mxCell id="0amnVR1kdf3CnyVceFuH-35" value="" style="edgeStyle=orthogonalEdgeStyle;rounded=0;orthogonalLoop=1;jettySize=auto;html=1;fontColor=#000000;" edge="1" parent="1" target="0amnVR1kdf3CnyVceFuH-34">
          <mxGeometry relative="1" as="geometry">
            <mxPoint x="962" y="764.94" as="sourcePoint" />
          </mxGeometry>
        </mxCell>
        <mxCell id="0amnVR1kdf3CnyVceFuH-63" value="" style="group" vertex="1" connectable="0" parent="1">
          <mxGeometry x="1215" y="647" width="105" height="208" as="geometry" />
        </mxCell>
        <mxCell id="0amnVR1kdf3CnyVceFuH-60" value="" style="rounded=1;whiteSpace=wrap;html=1;labelBackgroundColor=#ffffff;fontColor=#000000;" vertex="1" parent="0amnVR1kdf3CnyVceFuH-63">
          <mxGeometry y="13" width="105" height="195" as="geometry" />
        </mxCell>
        <mxCell id="0amnVR1kdf3CnyVceFuH-57" value="路口进" style="rounded=1;whiteSpace=wrap;html=1;labelBackgroundColor=#ffffff;fontColor=#000000;" vertex="1" parent="0amnVR1kdf3CnyVceFuH-63">
          <mxGeometry x="7.5" y="35.5" width="90" height="45" as="geometry" />
        </mxCell>
        <mxCell id="0amnVR1kdf3CnyVceFuH-58" value="路口出" style="rounded=1;whiteSpace=wrap;html=1;labelBackgroundColor=#ffffff;fontColor=#000000;" vertex="1" parent="0amnVR1kdf3CnyVceFuH-63">
          <mxGeometry x="7.5" y="133" width="90" height="45" as="geometry" />
        </mxCell>
        <mxCell id="0amnVR1kdf3CnyVceFuH-61" value="进出筛选" style="text;html=1;strokeColor=none;fillColor=none;align=center;verticalAlign=middle;whiteSpace=wrap;rounded=0;labelBackgroundColor=#ffffff;fontStyle=1;fontColor=#FF0000;" vertex="1" parent="0amnVR1kdf3CnyVceFuH-63">
          <mxGeometry x="23.75" width="57.5" height="20" as="geometry" />
        </mxCell>
        <mxCell id="0amnVR1kdf3CnyVceFuH-64" style="edgeStyle=orthogonalEdgeStyle;rounded=0;orthogonalLoop=1;jettySize=auto;html=1;exitX=0.75;exitY=1;exitDx=0;exitDy=0;entryX=0.753;entryY=0.5;entryDx=0;entryDy=0;entryPerimeter=0;fontColor=#FF0000;" edge="1" parent="1" source="0amnVR1kdf3CnyVceFuH-24" target="0amnVR1kdf3CnyVceFuH-24">
          <mxGeometry relative="1" as="geometry" />
        </mxCell>
        <mxCell id="0amnVR1kdf3CnyVceFuH-81" value="" style="edgeStyle=orthogonalEdgeStyle;rounded=0;orthogonalLoop=1;jettySize=auto;html=1;fontColor=#000000;" edge="1" parent="1" source="0amnVR1kdf3CnyVceFuH-67" target="0amnVR1kdf3CnyVceFuH-80">
          <mxGeometry relative="1" as="geometry" />
        </mxCell>
        <mxCell id="0amnVR1kdf3CnyVceFuH-67" value="" style="rounded=1;whiteSpace=wrap;html=1;labelBackgroundColor=#ffffff;fontColor=#FF0000;" vertex="1" parent="1">
          <mxGeometry x="1380" y="660" width="120" height="195" as="geometry" />
        </mxCell>
        <mxCell id="0amnVR1kdf3CnyVceFuH-68" value="中心线匹配" style="text;html=1;align=center;verticalAlign=middle;whiteSpace=wrap;rounded=0;labelBackgroundColor=#ffffff;fontColor=#FF0000;fontStyle=1" vertex="1" parent="1">
          <mxGeometry x="1407.5" y="647" width="65" height="20" as="geometry" />
        </mxCell>
        <mxCell id="0amnVR1kdf3CnyVceFuH-69" value="箭头方向" style="rounded=1;whiteSpace=wrap;html=1;labelBackgroundColor=#ffffff;fillColor=none;" vertex="1" parent="1">
          <mxGeometry x="1400.5" y="675" width="75" height="30" as="geometry" />
        </mxCell>
        <mxCell id="0amnVR1kdf3CnyVceFuH-70" value="中心线相互夹角" style="rounded=1;whiteSpace=wrap;html=1;labelBackgroundColor=#ffffff;fillColor=none;" vertex="1" parent="1">
          <mxGeometry x="1402.5" y="720" width="75" height="30" as="geometry" />
        </mxCell>
        <mxCell id="0amnVR1kdf3CnyVceFuH-71" value="中心线位置关系" style="rounded=1;whiteSpace=wrap;html=1;labelBackgroundColor=#ffffff;fillColor=none;" vertex="1" parent="1">
          <mxGeometry x="1402.5" y="765" width="75" height="30" as="geometry" />
        </mxCell>
        <mxCell id="0amnVR1kdf3CnyVceFuH-72" value="特殊限制" style="rounded=1;whiteSpace=wrap;html=1;labelBackgroundColor=#ffffff;fillColor=none;" vertex="1" parent="1">
          <mxGeometry x="1402.5" y="810" width="75" height="30" as="geometry" />
        </mxCell>
        <mxCell id="0amnVR1kdf3CnyVceFuH-73" value="" style="edgeStyle=orthogonalEdgeStyle;rounded=0;orthogonalLoop=1;jettySize=auto;html=1;fontColor=#000000;entryX=0;entryY=0.5;entryDx=0;entryDy=0;" edge="1" parent="1" source="0amnVR1kdf3CnyVceFuH-60" target="0amnVR1kdf3CnyVceFuH-67">
          <mxGeometry relative="1" as="geometry" />
        </mxCell>
        <mxCell id="0amnVR1kdf3CnyVceFuH-79" value="" style="edgeStyle=orthogonalEdgeStyle;rounded=0;orthogonalLoop=1;jettySize=auto;html=1;fontColor=#000000;" edge="1" parent="1" source="0amnVR1kdf3CnyVceFuH-77" target="0amnVR1kdf3CnyVceFuH-78">
          <mxGeometry relative="1" as="geometry" />
        </mxCell>
        <mxCell id="0amnVR1kdf3CnyVceFuH-77" value="" style="rounded=1;whiteSpace=wrap;html=1;labelBackgroundColor=#ffffff;fillColor=none;fontColor=#000000;dashed=1;" vertex="1" parent="1">
          <mxGeometry x="480" y="720" width="315" height="90" as="geometry" />
        </mxCell>
        <mxCell id="0amnVR1kdf3CnyVceFuH-78" value="中心线" style="shape=cylinder;whiteSpace=wrap;html=1;boundedLbl=1;backgroundOutline=1;rounded=1;fillColor=#b1ddf0;labelBackgroundColor=#ffffff;strokeColor=#10739e;" vertex="1" parent="1">
          <mxGeometry x="611.25" y="660" width="52.5" height="37" as="geometry" />
        </mxCell>
        <mxCell id="0amnVR1kdf3CnyVceFuH-80" value="&lt;font color=&quot;#000000&quot;&gt;路口中心线&lt;/font&gt;" style="shape=cylinder;whiteSpace=wrap;html=1;boundedLbl=1;backgroundOutline=1;rounded=1;labelBackgroundColor=#ffffff;fillColor=#b1ddf0;strokeColor=#10739e;" vertex="1" parent="1">
          <mxGeometry x="1575" y="733.75" width="60" height="47.5" as="geometry" />
        </mxCell>
        <mxCell id="0amnVR1kdf3CnyVceFuH-88" value="" style="edgeStyle=orthogonalEdgeStyle;rounded=0;orthogonalLoop=1;jettySize=auto;html=1;fontColor=#000000;entryX=0.584;entryY=0.988;entryDx=0;entryDy=0;entryPerimeter=0;" edge="1" parent="1" source="0amnVR1kdf3CnyVceFuH-82" target="0amnVR1kdf3CnyVceFuH-86">
          <mxGeometry relative="1" as="geometry">
            <Array as="points">
              <mxPoint x="642" y="885" />
            </Array>
          </mxGeometry>
        </mxCell>
        <mxCell id="0amnVR1kdf3CnyVceFuH-82" value="" style="rounded=1;whiteSpace=wrap;html=1;dashed=1;labelBackgroundColor=#ffffff;fillColor=none;fontColor=#000000;" vertex="1" parent="1">
          <mxGeometry x="487.5" y="895.5" width="307.5" height="75" as="geometry" />
        </mxCell>
        <mxCell id="0amnVR1kdf3CnyVceFuH-86" value="参考线" style="shape=cylinder;whiteSpace=wrap;html=1;boundedLbl=1;backgroundOutline=1;rounded=1;fillColor=#b1ddf0;labelBackgroundColor=#ffffff;strokeColor=#10739e;" vertex="1" parent="1">
          <mxGeometry x="611.25" y="825" width="52.5" height="37" as="geometry" />
        </mxCell>
        <mxCell id="0amnVR1kdf3CnyVceFuH-97" value="" style="endArrow=classic;startArrow=classic;html=1;fontColor=#000000;entryX=0.767;entryY=0.996;entryDx=0;entryDy=0;entryPerimeter=0;exitX=0.766;exitY=0.023;exitDx=0;exitDy=0;exitPerimeter=0;" edge="1" parent="1" source="0amnVR1kdf3CnyVceFuH-82" target="0amnVR1kdf3CnyVceFuH-77">
          <mxGeometry width="50" height="50" relative="1" as="geometry">
            <mxPoint x="675" y="935" as="sourcePoint" />
            <mxPoint x="725" y="885" as="targetPoint" />
          </mxGeometry>
        </mxCell>
        <mxCell id="0amnVR1kdf3CnyVceFuH-98" value="Id关联" style="edgeLabel;html=1;align=center;verticalAlign=middle;resizable=0;points=[];fontColor=#000000;" vertex="1" connectable="0" parent="0amnVR1kdf3CnyVceFuH-97">
          <mxGeometry x="0.1747" y="2" relative="1" as="geometry">
            <mxPoint as="offset" />
          </mxGeometry>
        </mxCell>
      </root>
    </mxGraphModel>
  </diagram>
</mxfile>
